<?xml version="1.0" encoding="UTF-8"?>
<!DOCTYPE svg PUBLIC "-//W3C//DTD SVG 1.1//EN" "http://www.w3.org/Graphics/SVG/1.1/DTD/svg11.dtd">
<!-- Creator: CorelDRAW X7 -->
<svg xmlns="http://www.w3.org/2000/svg" xml:space="preserve" width="20px" height="29px" version="1.1" style="shape-rendering:geometricPrecision; text-rendering:geometricPrecision; image-rendering:optimizeQuality; fill-rule:evenodd; clip-rule:evenodd"
viewBox="0 0 332 473"
 xmlns:xlink="http://www.w3.org/1999/xlink">
 <defs>
  <style type="text/css">
   <![CDATA[
    .fil1 {fill:#FEFEFE}
    .fil0 {fill:#00A859}
   ]]>
  </style>
 </defs>
 <g id="Capa_x0020_1">
  <metadata id="CorelCorpID_0Corel-Layer"/>
  <g id="_368868200">
   <path class="fil0" d="M166 473c8,-5 40,-48 45,-56 14,-19 27,-37 41,-58 24,-34 55,-88 70,-133 20,-63 11,-113 -22,-158 -103,-144 -352,-44 -290,157 20,64 71,139 110,191 8,11 13,18 22,29l24 28z"/>
   <path class="fil1" d="M155 90c-99,16 -73,162 23,146 36,-6 68,-41 61,-85 -6,-37 -41,-68 -84,-61z"/>
  </g>
 </g>
</svg>
